<svg width="184" height="48" viewBox="0 0 184 48" fill="none" xmlns="http://www.w3.org/2000/svg">
  <path d="M52.2188 38V10.5H59.6719C61.6719 10.5 63.125 10.9896 64.0312 11.9688C64.9479 12.9375 65.4062 14.5417 65.4062 16.7812V17.9844C65.4062 19.276 65.1719 20.3229 64.7031 21.125C64.2448 21.9271 63.5417 22.4531 62.5938 22.7031C63.8333 23.0156 64.6615 23.75 65.0781 24.9062C65.5052 26.0521 65.7188 27.4531 65.7188 29.1094C65.7188 30.8906 65.5521 32.4479 65.2188 33.7812C64.8854 35.1146 64.2812 36.151 63.4062 36.8906C62.5312 37.6302 61.2865 38 59.6719 38H52.2188ZM57.5938 20.8594H58.7188C59.2292 20.8594 59.5573 20.6615 59.7031 20.2656C59.849 19.8698 59.9219 19.3958 59.9219 18.8438V16.0781C59.9219 15.1927 59.5312 14.75 58.75 14.75H57.5938V20.8594ZM58.1406 33.1562C59.5677 33.1562 60.2812 32.4792 60.2812 31.125V27.6875C60.2812 26.9062 60.1615 26.2917 59.9219 25.8438C59.6927 25.3854 59.2552 25.1562 58.6094 25.1562H57.5938V33.125C57.8229 33.1458 58.0052 33.1562 58.1406 33.1562ZM67.5312 38V13.625H73.0312V33.3125H78.6875V38H67.5312ZM86.8125 38.25C84.5625 38.25 82.8698 37.5729 81.7344 36.2188C80.599 34.8542 80.0312 32.9479 80.0312 30.5V20.5625C80.0312 18.1979 80.6094 16.4115 81.7656 15.2031C82.9323 13.9844 84.6146 13.375 86.8125 13.375C89.0208 13.375 90.7031 13.9844 91.8594 15.2031C93.0156 16.4115 93.5938 18.1979 93.5938 20.5625V30.5C93.5938 32.9479 93.026 34.8542 91.8906 36.2188C90.7552 37.5729 89.0625 38.25 86.8125 38.25ZM86.8594 33.3438C87.3802 33.3438 87.7188 33.1094 87.875 32.6406C88.0312 32.1615 88.1094 31.5885 88.1094 30.9219V20.3125C88.1094 19.8229 88.0417 19.3646 87.9062 18.9375C87.7708 18.5 87.4323 18.2812 86.8906 18.2812C86.3594 18.2812 85.9948 18.4844 85.7969 18.8906C85.6094 19.2865 85.5156 19.776 85.5156 20.3594V30.9531C85.5156 31.6719 85.599 32.25 85.7656 32.6875C85.9323 33.125 86.2969 33.3438 86.8594 33.3438ZM102.219 38.25C100.229 38.25 98.625 37.6302 97.4062 36.3906C96.1979 35.151 95.5938 33.4167 95.5938 31.1875V21.625C95.5938 18.9583 96.1198 16.9167 97.1719 15.5C98.2344 14.0833 99.9583 13.375 102.344 13.375C103.646 13.375 104.802 13.6146 105.812 14.0938C106.833 14.5729 107.635 15.2917 108.219 16.25C108.802 17.1979 109.094 18.3958 109.094 19.8438V24.2188H103.625V20.375C103.625 19.5521 103.521 19 103.312 18.7188C103.104 18.4271 102.781 18.2812 102.344 18.2812C101.833 18.2812 101.49 18.4688 101.312 18.8438C101.135 19.2083 101.047 19.6979 101.047 20.3125V31.2656C101.047 32.026 101.156 32.5625 101.375 32.875C101.604 33.1875 101.927 33.3438 102.344 33.3438C102.812 33.3438 103.141 33.151 103.328 32.7656C103.526 32.3802 103.625 31.8802 103.625 31.2656V27.7188H109.156V31.3594C109.156 33.776 108.547 35.5312 107.328 36.625C106.109 37.7083 104.406 38.25 102.219 38.25ZM111 38V13.625H116.438V23.625L119 13.625H124.531L121.406 25.2031L125.172 38H119.469L116.469 26.7969V38H111ZM132.656 38.25C130.146 38.25 128.333 37.625 127.219 36.375C126.115 35.125 125.562 33.1354 125.562 30.4062V27.7188H131V31.1562C131 31.7917 131.094 32.2917 131.281 32.6562C131.479 33.0104 131.818 33.1875 132.297 33.1875C132.797 33.1875 133.141 33.0417 133.328 32.75C133.526 32.4583 133.625 31.9792 133.625 31.3125C133.625 30.4688 133.542 29.7656 133.375 29.2031C133.208 28.6302 132.917 28.0885 132.5 27.5781C132.094 27.0573 131.526 26.4531 130.797 25.7656L128.328 23.4219C126.484 21.6823 125.562 19.6927 125.562 17.4531C125.562 15.1094 126.104 13.3229 127.188 12.0938C128.281 10.8646 129.859 10.25 131.922 10.25C134.443 10.25 136.229 10.9219 137.281 12.2656C138.344 13.6094 138.875 15.651 138.875 18.3906H133.281V16.5C133.281 16.125 133.172 15.8333 132.953 15.625C132.745 15.4167 132.458 15.3125 132.094 15.3125C131.656 15.3125 131.333 15.4375 131.125 15.6875C130.927 15.9271 130.828 16.2396 130.828 16.625C130.828 17.0104 130.932 17.4271 131.141 17.875C131.349 18.3229 131.76 18.8385 132.375 19.4219L135.547 22.4688C136.182 23.0729 136.766 23.7135 137.297 24.3906C137.828 25.0573 138.255 25.8385 138.578 26.7344C138.901 27.6198 139.062 28.7031 139.062 29.9844C139.062 32.5677 138.583 34.5938 137.625 36.0625C136.677 37.5208 135.021 38.25 132.656 38.25ZM147.266 38.25C144.974 38.25 143.286 37.6094 142.203 36.3281C141.12 35.0365 140.578 33.1406 140.578 30.6406V13.625H145.922V30.5781C145.922 31.0365 145.948 31.4792 146 31.9062C146.052 32.3229 146.172 32.6667 146.359 32.9375C146.547 33.2083 146.849 33.3438 147.266 33.3438C147.693 33.3438 148 33.2135 148.188 32.9531C148.375 32.6823 148.49 32.3333 148.531 31.9062C148.583 31.4792 148.609 31.0365 148.609 30.5781V13.625H153.953V30.6406C153.953 33.1406 153.411 35.0365 152.328 36.3281C151.245 37.6094 149.557 38.25 147.266 38.25ZM156.062 38V13.625H164.344C165.75 13.625 166.823 13.9219 167.562 14.5156C168.312 15.1094 168.823 15.9271 169.094 16.9688C169.365 18 169.5 19.1823 169.5 20.5156C169.5 22.1927 169.271 23.5208 168.812 24.5C168.354 25.4792 167.615 26.151 166.594 26.5156C167.521 26.6615 168.177 27.0781 168.562 27.7656C168.958 28.4531 169.156 29.3594 169.156 30.4844V38H163.703V30.125C163.703 29.3229 163.536 28.8281 163.203 28.6406C162.88 28.4427 162.354 28.3438 161.625 28.3438V38H156.062ZM161.656 23.5781H162.984C163.745 23.5781 164.125 22.7656 164.125 21.1406C164.125 20.1615 164.042 19.5156 163.875 19.2031C163.708 18.8802 163.396 18.7188 162.938 18.7188H161.656V23.5781ZM171.312 38V13.625H182.312V18.9375H176.906V22.9688H182.094V28.1406H176.906V32.6406H182.672V38H171.312Z" fill="black"/>
  <rect y="2" width="44" height="44" rx="2" fill="black"/>
  <path d="M9.14258 37V11.2188H16.1299C18.0049 11.2188 19.3672 11.6777 20.2168 12.5957C21.0762 13.5039 21.5059 15.0078 21.5059 17.1074V18.2354C21.5059 19.4463 21.2861 20.4277 20.8467 21.1797C20.417 21.9316 19.7578 22.4248 18.8691 22.6592C20.0312 22.9521 20.8076 23.6406 21.1982 24.7246C21.5986 25.7988 21.7988 27.1123 21.7988 28.665C21.7988 30.335 21.6426 31.7949 21.3301 33.0449C21.0176 34.2949 20.4512 35.2666 19.6309 35.96C18.8105 36.6533 17.6436 37 16.1299 37H9.14258ZM14.1816 20.9307H15.2363C15.7148 20.9307 16.0225 20.7451 16.1592 20.374C16.2959 20.0029 16.3643 19.5586 16.3643 19.041V16.4482C16.3643 15.6182 15.998 15.2031 15.2656 15.2031H14.1816V20.9307ZM14.6943 32.459C16.0322 32.459 16.7012 31.8242 16.7012 30.5547V27.332C16.7012 26.5996 16.5889 26.0234 16.3643 25.6035C16.1494 25.1738 15.7393 24.959 15.1338 24.959H14.1816V32.4297C14.3965 32.4492 14.5674 32.459 14.6943 32.459ZM29.6211 37.2344C27.2676 37.2344 25.5684 36.6484 24.5234 35.4766C23.4883 34.3047 22.9707 32.4395 22.9707 29.8809V27.3613H28.0684V30.584C28.0684 31.1797 28.1562 31.6484 28.332 31.9902C28.5176 32.3223 28.835 32.4883 29.2842 32.4883C29.7529 32.4883 30.0752 32.3516 30.251 32.0781C30.4365 31.8047 30.5293 31.3555 30.5293 30.7305C30.5293 29.9395 30.4512 29.2803 30.2949 28.7529C30.1387 28.2158 29.8652 27.708 29.4746 27.2295C29.0938 26.7412 28.5615 26.1748 27.8779 25.5303L25.5635 23.333C23.835 21.7021 22.9707 19.8369 22.9707 17.7373C22.9707 15.54 23.4785 13.8652 24.4941 12.7129C25.5195 11.5605 26.999 10.9844 28.9326 10.9844C31.2959 10.9844 32.9707 11.6143 33.957 12.874C34.9531 14.1338 35.4512 16.0479 35.4512 18.6162H30.207V16.8438C30.207 16.4922 30.1045 16.2188 29.8994 16.0234C29.7041 15.8281 29.4355 15.7305 29.0938 15.7305C28.6836 15.7305 28.3809 15.8477 28.1855 16.082C28 16.3066 27.9072 16.5996 27.9072 16.9609C27.9072 17.3223 28.0049 17.7129 28.2002 18.1328C28.3955 18.5527 28.7812 19.0361 29.3574 19.583L32.3311 22.4395C32.9268 23.0059 33.4736 23.6064 33.9717 24.2412C34.4697 24.8662 34.8701 25.5986 35.1729 26.4385C35.4756 27.2686 35.627 28.2842 35.627 29.4854C35.627 31.9072 35.1777 33.8066 34.2793 35.1836C33.3906 36.5508 31.8379 37.2344 29.6211 37.2344Z" fill="white"/>
</svg>