<svg width="35" height="40" viewBox="0 0 35 40" fill="none" xmlns="http://www.w3.org/2000/svg">
<path d="M5.48315 28.7012L26.553 3.40529" stroke="black" stroke-width="2" stroke-linecap="round"/>
<path d="M11.5383 33.4919L33.2886 7.39354" stroke="black" stroke-width="2" stroke-linecap="round"/>
<path d="M32.8199 7.2364C32.7289 7.38178 32.4246 7.61505 31.6635 7.57923C30.9385 7.5451 30.007 7.25887 29.0794 6.67831C28.1517 6.09774 27.4871 5.3851 27.1395 4.74791C26.7746 4.07906 26.8514 3.70336 26.9424 3.55798C27.0334 3.41261 27.3377 3.17934 28.0988 3.21516C28.8238 3.24929 29.7553 3.53551 30.6829 4.11608C31.6106 4.69665 32.2752 5.40929 32.6228 6.04647C32.9877 6.71533 32.9109 7.09103 32.8199 7.2364Z" stroke="black" stroke-width="2"/>
<path d="M23.3303 7.16479C24.5836 11.6407 27.9853 12.1778 29.0595 12.3568" stroke="black" stroke-width="2"/>
<path d="M5.78467 28.1123C7.03792 32.5882 10.4396 33.1253 11.5138 33.3044" stroke="black" stroke-width="2"/>
<path d="M5.42659 28.8284L2.56201 37.6012L11.5138 33.4833" stroke="black" stroke-width="2" stroke-linecap="round"/>
<path d="M3.63623 34.5576C3.92269 35.7034 5.06852 36.2286 5.60563 36.348" stroke="black" stroke-width="2"/>
</svg>
