<svg width="176" height="32" viewBox="0 0 176 32" fill="none" xmlns="http://www.w3.org/2000/svg">
<path d="M168.375 28.25C166.708 28.25 165.38 27.9375 164.391 27.3125C163.401 26.6875 162.693 25.7865 162.266 24.6094C161.839 23.4323 161.625 22.0156 161.625 20.3594V10.9375C161.625 8.76042 162.25 7.11458 163.5 6C164.75 4.875 166.469 4.3125 168.656 4.3125C173.156 4.3125 175.406 6.52083 175.406 10.9375V12.6406C175.406 14.7031 175.385 16.0885 175.344 16.7969H167.219V21.3281C167.219 21.7448 167.245 22.1562 167.297 22.5625C167.349 22.9583 167.464 23.2865 167.641 23.5469C167.828 23.8073 168.125 23.9375 168.531 23.9375C169.115 23.9375 169.479 23.6875 169.625 23.1875C169.771 22.6771 169.844 22.0156 169.844 21.2031V18.9531H175.406V20.2812C175.406 22.0312 175.188 23.5 174.75 24.6875C174.323 25.8646 173.594 26.7552 172.562 27.3594C171.542 27.9531 170.146 28.25 168.375 28.25ZM167.188 14.0156H169.844V10.8594C169.844 10.0156 169.74 9.41146 169.531 9.04688C169.323 8.67188 169.01 8.48438 168.594 8.48438C168.146 8.48438 167.797 8.66146 167.547 9.01562C167.307 9.36979 167.188 9.98438 167.188 10.8594V14.0156Z" fill="black"/>
<path d="M150.719 28V4.5625H156.406V7.17188C156.677 6.26562 157.156 5.55729 157.844 5.04688C158.531 4.53646 159.396 4.28125 160.438 4.28125V8.95312C159.979 8.95312 159.432 9.00521 158.797 9.10938C158.161 9.20312 157.604 9.33854 157.125 9.51562C156.646 9.68229 156.406 9.86979 156.406 10.0781V28H150.719Z" fill="black"/>
<path d="M139.266 28.25C138.016 28.25 137.057 27.9896 136.391 27.4688C135.734 26.9479 135.286 26.224 135.047 25.2969C134.807 24.3594 134.688 23.2656 134.688 22.0156V4.5625H140.312V21.3594C140.312 22.2969 140.385 22.9531 140.531 23.3281C140.677 23.6927 141.021 23.875 141.562 23.875C142.146 23.875 142.51 23.6146 142.656 23.0938C142.812 22.5729 142.891 21.901 142.891 21.0781V4.5625H148.469V28H142.875V25.5C142.521 26.3958 142.094 27.0781 141.594 27.5469C141.104 28.0156 140.328 28.25 139.266 28.25Z" fill="black"/>
<path d="M125.984 28.25C121.359 28.25 119.047 25.9062 119.047 21.2188V19.3594H124.672V22.1094C124.672 22.6406 124.776 23.0573 124.984 23.3594C125.193 23.6615 125.526 23.8125 125.984 23.8125C126.797 23.8125 127.203 23.2031 127.203 21.9844C127.203 20.9635 126.99 20.2031 126.562 19.7031C126.135 19.1927 125.615 18.7031 125 18.2344L122.016 15.9375C121.078 15.2083 120.365 14.4375 119.875 13.625C119.385 12.8125 119.141 11.6823 119.141 10.2344C119.141 8.89062 119.458 7.78125 120.094 6.90625C120.74 6.03125 121.589 5.38021 122.641 4.95312C123.703 4.52604 124.849 4.3125 126.078 4.3125C130.62 4.3125 132.891 6.57812 132.891 11.1094V11.5469H127.109V10.6562C127.109 10.1875 127.026 9.73438 126.859 9.29688C126.703 8.85938 126.391 8.64062 125.922 8.64062C125.13 8.64062 124.734 9.05729 124.734 9.89062C124.734 10.7344 125.068 11.3958 125.734 11.875L129.203 14.4062C130.286 15.1875 131.193 16.1146 131.922 17.1875C132.661 18.2604 133.031 19.6875 133.031 21.4688C133.031 23.6771 132.401 25.3594 131.141 26.5156C129.891 27.6719 128.172 28.25 125.984 28.25Z" fill="black"/>
<path d="M103.594 28V4.5625H109.188V7.54688C109.396 6.65104 109.781 5.89062 110.344 5.26562C110.917 4.63021 111.708 4.3125 112.719 4.3125C114.344 4.3125 115.521 4.8125 116.25 5.8125C116.99 6.8125 117.359 8.18229 117.359 9.92188V28H111.844V10.5C111.844 10.0417 111.75 9.61979 111.562 9.23438C111.375 8.83854 111.052 8.64062 110.594 8.64062C110.167 8.64062 109.849 8.79167 109.641 9.09375C109.443 9.38542 109.318 9.75521 109.266 10.2031C109.214 10.6406 109.188 11.0781 109.188 11.5156V28H103.594Z" fill="black"/>
<path d="M90.5 28V0.5H101.5V5.8125H96.0938V11.1719H101.281V16.3438H96.0938V22.6406H101.859V28H90.5Z" fill="black"/>
<path d="M73.8125 28.25C69.1458 28.25 66.8125 25.8281 66.8125 20.9844V11.5781C66.8125 9.36979 67.4323 7.60938 68.6719 6.29688C69.9115 4.97396 71.625 4.3125 73.8125 4.3125C76.0104 4.3125 77.7292 4.97396 78.9688 6.29688C80.2083 7.60938 80.8281 9.36979 80.8281 11.5781V20.9844C80.8281 25.8281 78.4896 28.25 73.8125 28.25ZM73.8125 23.9375C74.2812 23.9375 74.6146 23.7708 74.8125 23.4375C75.0208 23.0938 75.125 22.6615 75.125 22.1406V10.6875C75.125 9.32292 74.6875 8.64062 73.8125 8.64062C72.9375 8.64062 72.5 9.32292 72.5 10.6875V22.1406C72.5 22.6615 72.599 23.0938 72.7969 23.4375C73.0052 23.7708 73.3438 23.9375 73.8125 23.9375Z" fill="black"/>
<path d="M62.0312 28.25C60.5208 28.25 59.5 27.9323 58.9688 27.2969C58.4479 26.651 58.1875 25.6667 58.1875 24.3438V9.73438H56.6094V5.46875H58.1875V0.5H63.625V5.46875H65.2031V9.73438H63.625V23.0312C63.625 23.4167 63.6875 23.6875 63.8125 23.8438C63.9375 24 64.1771 24.0781 64.5312 24.0781C64.7812 24.0781 65.0052 24.0573 65.2031 24.0156V27.8281C65.0781 27.8698 64.6875 27.9479 64.0312 28.0625C63.375 28.1875 62.7083 28.25 62.0312 28.25Z" fill="black"/>
<path d="M41.1562 31.9062V4.5625H46.8438V7.0625C47.1875 6.19792 47.6615 5.52604 48.2656 5.04688C48.8802 4.55729 49.7552 4.3125 50.8906 4.3125C52.4219 4.3125 53.5 4.86979 54.125 5.98438C54.7604 7.09896 55.0781 8.55729 55.0781 10.3594V21.8906C55.0781 23.0885 54.9062 24.1719 54.5625 25.1406C54.2292 26.099 53.6979 26.8594 52.9688 27.4219C52.25 27.974 51.3073 28.25 50.1406 28.25C48.6198 28.25 47.5208 27.3333 46.8438 25.5V31.9062H41.1562ZM48.1719 23.8906C48.7552 23.8906 49.1042 23.599 49.2188 23.0156C49.3438 22.4323 49.4062 21.7135 49.4062 20.8594V11.7031C49.4062 10.8385 49.3438 10.1198 49.2188 9.54688C49.1042 8.96354 48.7552 8.67188 48.1719 8.67188C47.5677 8.67188 47.1927 8.96875 47.0469 9.5625C46.9115 10.1458 46.8438 10.8594 46.8438 11.7031V20.8594C46.8438 21.7031 46.9115 22.4219 47.0469 23.0156C47.1927 23.599 47.5677 23.8906 48.1719 23.8906Z" fill="black"/>
<path d="M25.9531 31.9062V28.3594H28.6406C29.0469 28.3594 29.25 28.2188 29.25 27.9375C29.25 27.7917 29.2344 27.6406 29.2031 27.4844L25.5312 4.5625H30.8906L32.4531 21.8125L34.2969 4.5625H39.6875L35.3438 29.2188C35.1875 30.1042 34.8854 30.7708 34.4375 31.2188C34 31.6771 33.276 31.9062 32.2656 31.9062H25.9531Z" fill="black"/>
<path d="M15.3125 28V4.5625H21V7.17188C21.2708 6.26562 21.75 5.55729 22.4375 5.04688C23.125 4.53646 23.9896 4.28125 25.0312 4.28125V8.95312C24.5729 8.95312 24.026 9.00521 23.3906 9.10938C22.7552 9.20312 22.1979 9.33854 21.7188 9.51562C21.2396 9.68229 21 9.86979 21 10.0781V28H15.3125Z" fill="black"/>
<path d="M6.625 28.25C4.63542 28.25 3.03125 27.6302 1.8125 26.3906C0.604167 25.151 0 23.4167 0 21.1875V8.5C0 5.83333 0.526042 3.79167 1.57812 2.375C2.64062 0.958333 4.36458 0.25 6.75 0.25C8.05208 0.25 9.20833 0.489583 10.2188 0.96875C11.2396 1.44792 12.0417 2.16667 12.625 3.125C13.2083 4.07292 13.5 5.27083 13.5 6.71875V11.4688H8.03125V7.40625C8.03125 6.58333 7.92708 6.03125 7.71875 5.75C7.51042 5.45833 7.1875 5.3125 6.75 5.3125C6.23958 5.3125 5.89583 5.5 5.71875 5.875C5.54167 6.23958 5.45312 6.72917 5.45312 7.34375V21.1094C5.45312 21.8698 5.5625 22.4062 5.78125 22.7188C6.01042 23.0312 6.33333 23.1875 6.75 23.1875C7.21875 23.1875 7.54688 22.9948 7.73438 22.6094C7.93229 22.224 8.03125 21.724 8.03125 21.1094V16.1562H13.5625V21.3594C13.5625 23.776 12.9531 25.5312 11.7344 26.625C10.5156 27.7083 8.8125 28.25 6.625 28.25Z" fill="black"/>
</svg>
